<svg width="17" height="16" viewBox="0 0 17 16" fill="none" xmlns="http://www.w3.org/2000/svg">
<path d="M8 4C8.13261 4 8.25979 4.05268 8.35355 4.14645C8.44732 4.24021 8.5 4.36739 8.5 4.5V7H11C11.1326 7 11.2598 7.05268 11.3536 7.14645C11.4473 7.24021 11.5 7.36739 11.5 7.5C11.5 7.63261 11.4473 7.75979 11.3536 7.85355C11.2598 7.94732 11.1326 8 11 8H8.5V10.5C8.5 10.6326 8.44732 10.7598 8.35355 10.8536C8.25979 10.9473 8.13261 11 8 11C7.86739 11 7.74021 10.9473 7.64645 10.8536C7.55268 10.7598 7.5 10.6326 7.5 10.5V8H5C4.86739 8 4.74021 7.94732 4.64645 7.85355C4.55268 7.75979 4.5 7.63261 4.5 7.5C4.5 7.36739 4.55268 7.24021 4.64645 7.14645C4.74021 7.05268 4.86739 7 5 7H7.5V4.5C7.5 4.36739 7.55268 4.24021 7.64645 4.14645C7.74021 4.05268 7.86739 4 8 4Z" fill="white"/>
<path fill-rule="evenodd" clip-rule="evenodd" d="M0.5 6.4C0.5 4.16 0.5 3.04 0.936 2.18C1.32134 1.42756 1.93356 0.815345 2.686 0.43C3.542 -0.00599954 4.666 -0.00599957 6.906 -0.00599957H9.106C11.346 -0.00599957 12.466 -0.00599954 13.326 0.43C14.079 0.813 14.686 1.425 15.076 2.18C15.512 3.036 15.512 4.16 15.512 6.4V8.6C15.512 10.84 15.512 11.96 15.076 12.82C14.6907 13.5724 14.0784 14.1847 13.326 14.57C12.47 15.006 11.346 15.006 9.106 15.006H6.906C4.666 15.006 3.546 15.006 2.686 14.57C1.93356 14.1847 1.32134 13.5724 0.936 12.82C0.5 11.964 0.5 10.84 0.5 8.6V6.4ZM6.9 1H9.1C10.24 1 11.03 1 11.65 1.051C12.255 1.101 12.603 1.193 12.87 1.327C13.4331 1.61564 13.8914 2.07387 14.18 2.637C14.314 2.9 14.406 3.248 14.456 3.857C14.506 4.474 14.507 5.267 14.507 6.407V8.607C14.507 9.747 14.507 10.537 14.456 11.157C14.406 11.762 14.314 12.11 14.18 12.377C13.8925 12.9409 13.4339 13.3995 12.87 13.687C12.607 13.821 12.259 13.913 11.65 13.963C11.033 14.013 10.24 14.014 9.1 14.014H6.9C5.76 14.014 4.97 14.014 4.35 13.964C3.745 13.914 3.397 13.821 3.13 13.687C2.56606 13.3995 2.10752 12.9409 1.82 12.377C1.686 12.114 1.594 11.767 1.544 11.157C1.494 10.54 1.493 9.747 1.493 8.607V6.407C1.493 5.267 1.493 4.477 1.544 3.857C1.594 3.252 1.686 2.904 1.82 2.637C2.10864 2.07387 2.56687 1.61564 3.13 1.327C3.393 1.193 3.741 1.101 4.35 1.051C4.967 1.001 5.76 1 6.9 1Z" fill="white"/>
</svg>
