<svg width="31" height="31" viewBox="0 0 31 31" fill="none" xmlns="http://www.w3.org/2000/svg">
<rect width="31" height="31" rx="5" fill="#3A66E9"/>
<path d="M6.75001 9.875C6.75001 9.0462 7.07925 8.25134 7.6653 7.66529C8.25135 7.07924 9.0462 6.75 9.87501 6.75H21.125C21.9538 6.75 22.7487 7.07924 23.3347 7.66529C23.9208 8.25134 24.25 9.0462 24.25 9.875V21.125C24.25 21.9538 23.9208 22.7487 23.3347 23.3347C22.7487 23.9208 21.9538 24.25 21.125 24.25H17.8938C17.8003 23.9866 17.6491 23.7474 17.4513 23.55L14.9513 21.05C15.4829 19.938 15.6347 18.6822 15.3831 17.4756C15.1316 16.269 14.4907 15.1784 13.5589 14.3715C12.6272 13.5646 11.4563 13.086 10.2261 13.0094C8.99591 12.9328 7.77463 13.2624 6.75001 13.9475V9.875ZM19.25 11.125V19.875C19.25 20.0408 19.3159 20.1997 19.4331 20.3169C19.5503 20.4341 19.7092 20.5 19.875 20.5C20.0408 20.5 20.1997 20.4341 20.3169 20.3169C20.4342 20.1997 20.5 20.0408 20.5 19.875V11.125C20.5 10.9592 20.4342 10.8003 20.3169 10.6831C20.1997 10.5658 20.0408 10.5 19.875 10.5C19.7092 10.5 19.5503 10.5658 19.4331 10.6831C19.3159 10.8003 19.25 10.9592 19.25 11.125ZM14.25 18.625C14.25 19.6075 13.925 20.515 13.3788 21.245L16.5663 24.4325C16.6801 24.5504 16.7431 24.7082 16.7417 24.8721C16.7403 25.036 16.6745 25.1928 16.5586 25.3086C16.4428 25.4245 16.286 25.4902 16.1221 25.4917C15.9583 25.4931 15.8004 25.4301 15.6825 25.3162L12.495 22.1287C11.7059 22.7188 10.7408 23.0252 9.75587 22.9984C8.77095 22.9715 7.82392 22.613 7.06814 21.9809C6.31236 21.3488 5.79209 20.48 5.59157 19.5154C5.39105 18.5507 5.52202 17.5466 5.96328 16.6657C6.40454 15.7847 7.13026 15.0785 8.0229 14.6614C8.91554 14.2443 9.92284 14.1407 10.8817 14.3674C11.8405 14.5941 12.6948 15.1378 13.3061 15.9106C13.9174 16.6833 14.25 17.6397 14.25 18.625ZM13 18.625C13 17.7962 12.6708 17.0013 12.0847 16.4153C11.4987 15.8292 10.7038 15.5 9.87501 15.5C9.0462 15.5 8.25135 15.8292 7.6653 16.4153C7.07925 17.0013 6.75001 17.7962 6.75001 18.625C6.75001 19.4538 7.07925 20.2487 7.6653 20.8347C8.25135 21.4208 9.0462 21.75 9.87501 21.75C10.7038 21.75 11.4987 21.4208 12.0847 20.8347C12.6708 20.2487 13 19.4538 13 18.625Z" fill="white"/>
</svg>
