<svg width="16" height="16" viewBox="0 0 16 16" fill="none" xmlns="http://www.w3.org/2000/svg">
<path d="M14.6667 12.4033C14.6667 12.5359 14.614 12.6631 14.5203 12.7569C14.4265 12.8507 14.2993 12.9033 14.1667 12.9033H10.7667C10.6553 13.3186 10.4101 13.6855 10.069 13.9472C9.72788 14.2089 9.30997 14.3507 8.88004 14.3507C8.45012 14.3507 8.0322 14.2089 7.69109 13.9472C7.34998 13.6855 7.10474 13.3186 6.99337 12.9033H1.83337C1.70077 12.9033 1.57359 12.8507 1.47982 12.7569C1.38605 12.6631 1.33337 12.5359 1.33337 12.4033C1.33337 12.2707 1.38605 12.1435 1.47982 12.0498C1.57359 11.956 1.70077 11.9033 1.83337 11.9033H6.99337C7.10474 11.4881 7.34998 11.1212 7.69109 10.8595C8.0322 10.5978 8.45012 10.456 8.88004 10.456C9.30997 10.456 9.72788 10.5978 10.069 10.8595C10.4101 11.1212 10.6553 11.4881 10.7667 11.9033H14.1667C14.2993 11.9033 14.4265 11.956 14.5203 12.0498C14.614 12.1435 14.6667 12.2707 14.6667 12.4033ZM14.6667 3.59667C14.6667 3.72927 14.614 3.85645 14.5203 3.95022C14.4265 4.04399 14.2993 4.09667 14.1667 4.09667H12.5334C12.422 4.51192 12.1768 4.87883 11.8357 5.14051C11.4945 5.4022 11.0766 5.54404 10.6467 5.54404C10.2168 5.54404 9.79887 5.4022 9.45776 5.14051C9.11665 4.87883 8.8714 4.51192 8.76004 4.09667H1.83337C1.76771 4.09667 1.7027 4.08373 1.64203 4.05861C1.58137 4.03348 1.52625 3.99665 1.47982 3.95022C1.43339 3.90379 1.39656 3.84867 1.37143 3.78801C1.34631 3.72735 1.33337 3.66233 1.33337 3.59667C1.33337 3.53101 1.34631 3.46599 1.37143 3.40532C1.39656 3.34466 1.43339 3.28954 1.47982 3.24311C1.52625 3.19668 1.58137 3.15985 1.64203 3.13473C1.7027 3.1096 1.76771 3.09667 1.83337 3.09667H8.76004C8.8714 2.68142 9.11665 2.3145 9.45776 2.05282C9.79887 1.79114 10.2168 1.6493 10.6467 1.6493C11.0766 1.6493 11.4945 1.79114 11.8357 2.05282C12.1768 2.3145 12.422 2.68142 12.5334 3.09667H14.1667C14.2326 3.09577 14.298 3.10809 14.3591 3.1329C14.4202 3.15771 14.4757 3.19451 14.5223 3.24111C14.5689 3.28772 14.6057 3.3432 14.6305 3.40427C14.6553 3.46534 14.6676 3.53076 14.6667 3.59667ZM14.6667 7.99667C14.6676 8.06258 14.6553 8.128 14.6305 8.18906C14.6057 8.25013 14.5689 8.30561 14.5223 8.35222C14.4757 8.39883 14.4202 8.43562 14.3591 8.46043C14.298 8.48524 14.2326 8.49756 14.1667 8.49667H6.36671C6.25535 8.91192 6.0101 9.27883 5.66899 9.54051C5.32788 9.8022 4.90996 9.94404 4.48004 9.94404C4.05012 9.94404 3.6322 9.8022 3.29109 9.54051C2.94998 9.27883 2.70474 8.91192 2.59337 8.49667H1.83337C1.70077 8.49667 1.57359 8.44399 1.47982 8.35022C1.38605 8.25645 1.33337 8.12927 1.33337 7.99667C1.33337 7.86406 1.38605 7.73688 1.47982 7.64311C1.57359 7.54935 1.70077 7.49667 1.83337 7.49667H2.59337C2.70474 7.08142 2.94998 6.7145 3.29109 6.45282C3.6322 6.19113 4.05012 6.0493 4.48004 6.0493C4.90996 6.0493 5.32788 6.19113 5.66899 6.45282C6.0101 6.7145 6.25535 7.08142 6.36671 7.49667H14.1667C14.2993 7.49667 14.4265 7.54935 14.5203 7.64311C14.614 7.73688 14.6667 7.86406 14.6667 7.99667Z" fill="white"/>
</svg>
