<svg width="26" height="14" viewBox="0 0 26 14" fill="none" xmlns="http://www.w3.org/2000/svg">
<g clip-path="url(#clip0_24_87)">
<rect width="26" height="14" rx="7" fill="white"/>
<path d="M8.20361 5.47217C7.97445 5.47217 7.85986 5.36296 7.85986 5.14453C7.85986 5.04427 7.91178 4.86344 8.01562 4.60205C8.11947 4.33708 8.20898 4.13118 8.28418 3.98438C8.45605 3.64062 8.63151 3.40251 8.81055 3.27002C9.09701 3.05876 10.216 2.86719 12.1675 2.69531C13.0161 2.6237 13.6338 2.58789 14.0205 2.58789C14.4072 2.58789 14.6812 2.59326 14.8423 2.604C15.007 2.61475 15.1771 2.63444 15.3525 2.66309C15.528 2.68815 15.7035 2.72217 15.8789 2.76514C16.0544 2.80452 16.2209 2.85465 16.3784 2.91553C16.7186 3.04801 16.9567 3.21273 17.0928 3.40967C17.5189 4.02913 17.7319 4.53402 17.7319 4.92432C17.7319 5.36117 17.3989 5.78906 16.7329 6.20801C16.5324 6.33691 16.3175 6.46582 16.0884 6.59473C15.2541 7.0459 14.7653 7.31266 14.6221 7.39502C14.9229 7.97868 15.5119 8.58203 16.3892 9.20508C16.493 9.27669 16.5754 9.3304 16.6362 9.36621C16.9048 9.52376 17.2217 9.4987 17.5869 9.29102C17.6872 9.23014 17.7892 9.19971 17.8931 9.19971C17.9969 9.19971 18.0882 9.2391 18.167 9.31787C18.2458 9.39307 18.2852 9.47721 18.2852 9.57031C18.2852 9.99642 18.0005 10.4548 17.4312 10.9453C17.0086 11.3105 16.6273 11.4932 16.2871 11.4932C16.0114 11.4932 15.4116 11.0885 14.4878 10.2793C13.965 9.82096 13.5407 9.41097 13.2148 9.04932C12.889 8.68766 12.6652 8.41911 12.5435 8.24365C12.4217 8.06462 12.3608 7.91064 12.3608 7.78174C12.3608 7.65283 12.3913 7.53825 12.4521 7.43799C12.5166 7.33773 12.6025 7.24105 12.71 7.14795C12.8783 7.00472 13.1182 6.85254 13.4297 6.69141C13.7412 6.52669 13.9954 6.37093 14.1924 6.22412C14.3893 6.07731 14.5594 5.92513 14.7026 5.76758C15.0177 5.43457 15.1753 5.13379 15.1753 4.86523C15.1753 4.68978 15.1216 4.54297 15.0142 4.4248C14.8172 4.21354 14.6346 4.10791 14.4663 4.10791C14.1763 4.10791 13.8218 4.1276 13.4028 4.16699L12.7476 5.32715C11.9132 6.8418 11.3439 8.20605 11.0396 9.41992C10.9178 9.89258 10.4577 10.1289 9.65918 10.1289C9.00033 10.1289 8.57959 9.97493 8.39697 9.66699C8.3361 9.56315 8.31283 9.46289 8.32715 9.36621C8.34505 9.26595 8.39339 9.13704 8.47217 8.97949C8.55094 8.81836 8.65837 8.61784 8.79443 8.37793L9.27246 7.56152L9.85791 6.6001L10.5186 5.56348L11.2061 4.53223C9.95638 4.80078 9.04508 5.09082 8.47217 5.40234C8.38623 5.44889 8.29671 5.47217 8.20361 5.47217Z" fill="#3A66E9"/>
</g>
<defs>
<clipPath id="clip0_24_87">
<rect width="26" height="14" rx="7" fill="white"/>
</clipPath>
</defs>
</svg>
