<svg width="111" height="21" viewBox="0 0 111 21" fill="none" xmlns="http://www.w3.org/2000/svg">
<g clip-path="url(#clip0_24_86)">
<rect width="111" height="21" fill="#4E76EC"/>
<g clip-path="url(#clip1_24_86)">
<rect x="2" y="3" width="26" height="14" rx="7" fill="white"/>
<path d="M10.2036 8.47217C9.97445 8.47217 9.85986 8.36296 9.85986 8.14453C9.85986 8.04427 9.91178 7.86344 10.0156 7.60205C10.1195 7.33708 10.209 7.13118 10.2842 6.98438C10.4561 6.64062 10.6315 6.40251 10.8105 6.27002C11.097 6.05876 12.216 5.86719 14.1675 5.69531C15.0161 5.6237 15.6338 5.58789 16.0205 5.58789C16.4072 5.58789 16.6812 5.59326 16.8423 5.604C17.007 5.61475 17.1771 5.63444 17.3525 5.66309C17.528 5.68815 17.7035 5.72217 17.8789 5.76514C18.0544 5.80452 18.2209 5.85465 18.3784 5.91553C18.7186 6.04801 18.9567 6.21273 19.0928 6.40967C19.5189 7.02913 19.7319 7.53402 19.7319 7.92432C19.7319 8.36117 19.3989 8.78906 18.7329 9.20801C18.5324 9.33691 18.3175 9.46582 18.0884 9.59473C17.2541 10.0459 16.7653 10.3127 16.6221 10.395C16.9229 10.9787 17.5119 11.582 18.3892 12.2051C18.493 12.2767 18.5754 12.3304 18.6362 12.3662C18.9048 12.5238 19.2217 12.4987 19.5869 12.291C19.6872 12.2301 19.7892 12.1997 19.8931 12.1997C19.9969 12.1997 20.0882 12.2391 20.167 12.3179C20.2458 12.3931 20.2852 12.4772 20.2852 12.5703C20.2852 12.9964 20.0005 13.4548 19.4312 13.9453C19.0086 14.3105 18.6273 14.4932 18.2871 14.4932C18.0114 14.4932 17.4116 14.0885 16.4878 13.2793C15.965 12.821 15.5407 12.411 15.2148 12.0493C14.889 11.6877 14.6652 11.4191 14.5435 11.2437C14.4217 11.0646 14.3608 10.9106 14.3608 10.7817C14.3608 10.6528 14.3913 10.5382 14.4521 10.438C14.5166 10.3377 14.6025 10.241 14.71 10.1479C14.8783 10.0047 15.1182 9.85254 15.4297 9.69141C15.7412 9.52669 15.9954 9.37093 16.1924 9.22412C16.3893 9.07731 16.5594 8.92513 16.7026 8.76758C17.0177 8.43457 17.1753 8.13379 17.1753 7.86523C17.1753 7.68978 17.1216 7.54297 17.0142 7.4248C16.8172 7.21354 16.6346 7.10791 16.4663 7.10791C16.1763 7.10791 15.8218 7.1276 15.4028 7.16699L14.7476 8.32715C13.9132 9.8418 13.3439 11.2061 13.0396 12.4199C12.9178 12.8926 12.4577 13.1289 11.6592 13.1289C11.0003 13.1289 10.5796 12.9749 10.397 12.667C10.3361 12.5632 10.3128 12.4629 10.3271 12.3662C10.3451 12.266 10.3934 12.137 10.4722 11.9795C10.5509 11.8184 10.6584 11.6178 10.7944 11.3779L11.2725 10.5615L11.8579 9.6001L12.5186 8.56348L13.2061 7.53223C11.9564 7.80078 11.0451 8.09082 10.4722 8.40234C10.3862 8.44889 10.2967 8.47217 10.2036 8.47217Z" fill="#3A66E9"/>
</g>
<path d="M39.854 11.404C39.9787 11.404 40.041 11.5727 40.041 11.91C40.041 12.0933 39.964 12.317 39.81 12.581C39.656 12.8377 39.4543 13.076 39.205 13.296C38.963 13.5087 38.6917 13.6847 38.391 13.824C38.0903 13.9633 37.8043 14.033 37.533 14.033C37.2617 14.033 37.049 13.9817 36.895 13.879C36.741 13.7763 36.62 13.637 36.532 13.461C36.4073 13.2117 36.3047 12.7387 36.224 12.042C36.1433 11.338 36.0627 10.8467 35.982 10.568C35.7913 10.5313 35.6227 10.458 35.476 10.348C35.3367 10.2307 35.267 10.0913 35.267 9.93C35.267 9.76133 35.3403 9.64033 35.487 9.567C35.641 9.49367 35.8133 9.457 36.004 9.457C36.202 9.457 36.378 9.50467 36.532 9.6C36.7373 9.43133 36.9023 9.23333 37.027 9.006C37.159 8.77133 37.225 8.45967 37.225 8.071C37.225 7.675 37.093 7.35967 36.829 7.125C36.565 6.89033 36.1763 6.773 35.663 6.773C35.157 6.773 34.7683 6.81333 34.497 6.894C34.2257 6.97467 33.991 7.06267 33.793 7.158C33.6023 7.25333 33.43 7.34133 33.276 7.422C33.1293 7.50267 32.99 7.543 32.858 7.543C32.726 7.543 32.66 7.50267 32.66 7.422C32.66 7.334 32.7297 7.19467 32.869 7.004C33.0083 6.81333 33.2137 6.62267 33.485 6.432C34.167 5.95533 34.937 5.72067 35.795 5.728C36.653 5.728 37.3607 5.88933 37.918 6.212C38.5707 6.59333 38.897 7.16533 38.897 7.928C38.9043 8.55867 38.7393 9.083 38.402 9.501C38.0647 9.919 37.6467 10.2197 37.148 10.403C37.258 10.645 37.346 10.9053 37.412 11.184C37.4853 11.4627 37.555 11.7193 37.621 11.954C37.687 12.1887 37.7603 12.383 37.841 12.537C37.929 12.691 38.0317 12.768 38.149 12.768C38.2737 12.768 38.4203 12.6983 38.589 12.559C38.765 12.4123 38.9373 12.2547 39.106 12.086C39.2747 11.9173 39.425 11.7633 39.557 11.624C39.6963 11.4773 39.7953 11.404 39.854 11.404ZM35.069 7.444C35.1643 7.444 35.212 7.56867 35.212 7.818C35.212 8.06733 35.1973 8.302 35.168 8.522C35.102 8.94733 35.0177 9.34333 34.915 9.71C34.651 10.7073 34.519 11.2903 34.519 11.459V13.076C34.519 13.472 34.3687 13.7433 34.068 13.89C33.9287 13.956 33.793 14.0183 33.661 14.077C33.5363 14.1357 33.3933 14.165 33.232 14.165C32.924 14.165 32.77 13.813 32.77 13.109C32.77 12.3977 32.935 11.503 33.265 10.425C33.595 9.347 33.9397 8.52567 34.299 7.961C34.3723 7.851 34.4787 7.73733 34.618 7.62C34.7573 7.50267 34.9077 7.444 35.069 7.444ZM42.608 12.801C43.18 12.801 43.7337 12.5737 44.269 12.119C44.467 11.9503 44.6284 11.7963 44.753 11.657C44.8777 11.5103 44.973 11.437 45.039 11.437C45.1417 11.437 45.193 11.5397 45.193 11.745C45.193 11.9503 45.138 12.1813 45.028 12.438C44.918 12.6873 44.7347 12.933 44.478 13.175C43.8474 13.769 42.982 14.066 41.882 14.066C41.0094 14.066 40.4154 13.7507 40.1 13.12C39.99 12.9 39.935 12.5847 39.935 12.174C39.935 11.7633 40.0157 11.338 40.177 10.898C40.3384 10.4507 40.551 10.0657 40.815 9.743C41.0864 9.42033 41.398 9.171 41.75 8.995C42.102 8.81167 42.476 8.72 42.872 8.72C43.2754 8.72 43.5834 8.819 43.796 9.017C44.016 9.215 44.126 9.47167 44.126 9.787C44.126 10.1023 44.0454 10.3627 43.884 10.568C43.73 10.766 43.5284 10.9347 43.279 11.074C43.0297 11.206 42.751 11.327 42.443 11.437C42.1424 11.5397 41.8454 11.657 41.552 11.789V12.064C41.5594 12.328 41.6694 12.515 41.882 12.625C42.0947 12.735 42.3367 12.7937 42.608 12.801ZM42.421 9.699C42.0397 9.699 41.7757 10.1427 41.629 11.03C41.783 10.9273 41.926 10.8357 42.058 10.755C42.1974 10.6743 42.3184 10.5973 42.421 10.524C42.641 10.3627 42.7547 10.1793 42.762 9.974C42.762 9.79067 42.6484 9.699 42.421 9.699ZM47.7007 8.676C48.192 8.66867 48.5587 8.76033 48.8007 8.951C49.0427 9.13433 49.1637 9.402 49.1637 9.754C49.1637 10.0987 49.0574 10.3957 48.8447 10.645C48.6394 10.887 48.3864 11.0593 48.0857 11.162C48.2984 11.382 48.489 11.6057 48.6577 11.833C48.8337 12.0603 48.9217 12.2987 48.9217 12.548C48.9217 13.0393 48.7274 13.4207 48.3387 13.692C47.95 13.956 47.4074 14.088 46.7107 14.088C46.0214 14.088 45.5044 13.9523 45.1597 13.681C44.815 13.4023 44.6427 13.0907 44.6427 12.746C44.6427 12.394 44.727 12.075 44.8957 11.789C45.0717 11.503 45.2587 11.36 45.4567 11.36C45.574 11.36 45.6584 11.404 45.7097 11.492C45.761 11.5727 45.8564 11.8147 45.9957 12.218C46.047 12.3647 46.1314 12.504 46.2487 12.636C46.52 12.9367 46.949 13.087 47.5357 13.087C47.4477 12.8083 47.3047 12.57 47.1067 12.372C46.916 12.1667 46.7254 11.9687 46.5347 11.778C46.344 11.5873 46.1754 11.3857 46.0287 11.173C45.882 10.953 45.8087 10.6963 45.8087 10.403C45.8087 9.875 46.0067 9.446 46.4027 9.116C46.7767 8.82267 47.2094 8.676 47.7007 8.676ZM47.6567 10.711C47.95 10.3957 48.0967 10.1427 48.0967 9.952C48.0967 9.864 48.0637 9.787 47.9977 9.721C47.939 9.64767 47.851 9.611 47.7337 9.611C47.6164 9.611 47.5027 9.62567 47.3927 9.655C47.29 9.68433 47.2057 9.70633 47.1397 9.721C47.1397 9.99967 47.312 10.3297 47.6567 10.711ZM53.5787 9.358C53.5787 8.86667 53.9601 8.621 54.7227 8.621C54.9134 8.621 55.0307 8.68333 55.0747 8.808C55.1261 8.93267 55.1517 9.12333 55.1517 9.38C55.1517 9.73933 55.0711 10.2967 54.9097 11.052C54.7484 11.8073 54.6714 12.317 54.6787 12.581C54.6787 12.7057 54.7191 12.768 54.7997 12.768C54.9097 12.768 55.0454 12.6983 55.2067 12.559C55.3681 12.4197 55.5294 12.2693 55.6907 12.108C55.8521 11.9393 55.9987 11.7853 56.1307 11.646C56.2701 11.5067 56.3654 11.437 56.4167 11.437C56.5194 11.437 56.5707 11.5617 56.5707 11.811C56.5707 12.3243 56.3177 12.8193 55.8117 13.296C54.9611 13.7947 54.4221 14.044 54.1947 14.044C54.1727 14.044 54.1544 14.0403 54.1397 14.033C53.8611 14.033 53.6631 13.9413 53.5457 13.758C53.4357 13.5747 53.3661 13.3437 53.3367 13.065C53.1901 13.3363 52.9884 13.571 52.7317 13.769C52.4751 13.9597 52.1817 14.055 51.8517 14.055C51.2724 14.055 50.8251 13.945 50.5097 13.725C50.2017 13.505 50.0477 13.1787 50.0477 12.746C50.0477 12.5553 50.0734 12.3793 50.1247 12.218C50.1834 12.0567 50.2751 11.8587 50.3997 11.624L50.7187 8.918C50.9461 8.742 51.2724 8.654 51.6977 8.654C52.0351 8.654 52.2257 8.874 52.2697 9.314C52.3064 9.67333 52.2881 9.996 52.2147 10.282C52.1487 10.5607 52.0571 10.9163 51.9397 11.349C51.8224 11.7743 51.7637 12.152 51.7637 12.482C51.7637 12.746 51.9287 12.878 52.2587 12.878C52.6181 12.878 52.9297 12.5627 53.1937 11.932C53.3991 11.448 53.5384 10.909 53.6117 10.315C53.6044 10.2563 53.5971 10.183 53.5897 10.095C53.5897 9.99967 53.5861 9.908 53.5787 9.82C53.5787 9.732 53.5787 9.644 53.5787 9.556V9.358ZM62.601 10.656C62.601 10.414 62.4616 10.293 62.183 10.293C61.9923 10.293 61.7796 10.48 61.545 10.854C61.3103 11.2207 61.1416 11.6167 61.039 12.042V12.064C61.039 12.3133 61.0756 12.57 61.149 12.834C61.2296 13.098 61.27 13.2813 61.27 13.384C61.27 13.6333 60.9583 13.879 60.335 14.121C60.2396 14.1577 60.1553 14.176 60.082 14.176C59.8986 14.176 59.7703 14.0807 59.697 13.89C59.631 13.6993 59.598 13.4427 59.598 13.12C59.598 12.79 59.6053 12.482 59.62 12.196C59.642 11.9027 59.6603 11.635 59.675 11.393C59.697 11.1437 59.7153 10.9273 59.73 10.744C59.752 10.5533 59.763 10.3993 59.763 10.282C59.763 10.0327 59.6493 9.908 59.422 9.908C59.1946 9.908 58.9306 10.1757 58.63 10.711C58.3293 11.239 58.179 11.6607 58.179 11.976C58.179 12.284 58.2156 12.57 58.289 12.834C58.3696 13.098 58.41 13.2813 58.41 13.384C58.41 13.6333 58.0983 13.879 57.475 14.121C57.3796 14.1577 57.2953 14.176 57.222 14.176C57.0386 14.176 56.9103 14.0807 56.837 13.89C56.771 13.6993 56.738 13.406 56.738 13.01C56.738 11.9687 56.7783 11.217 56.859 10.755C56.969 10.073 57.2183 9.42767 57.607 8.819C57.739 8.61367 57.882 8.511 58.036 8.511C58.278 8.511 58.5016 8.709 58.707 9.105C58.7656 9.20767 58.8096 9.303 58.839 9.391C59.191 8.951 59.6053 8.731 60.082 8.731C60.3973 8.731 60.6796 8.83733 60.929 9.05C61.1783 9.25533 61.303 9.51567 61.303 9.831V9.952C61.7503 9.39467 62.2966 9.116 62.942 9.116C63.338 9.116 63.6386 9.21867 63.844 9.424C64.0493 9.62933 64.152 9.88233 64.152 10.183C64.152 10.4837 64.13 10.755 64.086 10.997C64.042 11.239 63.9906 11.4663 63.932 11.679C63.8806 11.8917 63.833 12.0823 63.789 12.251C63.745 12.4123 63.723 12.5407 63.723 12.636C63.723 12.724 63.7523 12.768 63.811 12.768C63.921 12.768 64.0566 12.6983 64.218 12.559C64.3793 12.4197 64.5406 12.2693 64.702 12.108C64.8633 11.9393 65.01 11.7853 65.142 11.646C65.2813 11.5067 65.3766 11.437 65.428 11.437C65.5306 11.437 65.582 11.5617 65.582 11.811C65.582 12.3243 65.3216 12.823 64.801 13.307C64.2876 13.791 63.7376 14.033 63.151 14.033C62.623 14.033 62.359 13.5527 62.359 12.592C62.359 12.35 62.3993 12.0163 62.48 11.591C62.5606 11.1657 62.601 10.854 62.601 10.656ZM68.1401 12.801C68.7121 12.801 69.2657 12.5737 69.8011 12.119C69.9991 11.9503 70.1604 11.7963 70.2851 11.657C70.4097 11.5103 70.5051 11.437 70.5711 11.437C70.6737 11.437 70.7251 11.5397 70.7251 11.745C70.7251 11.9503 70.6701 12.1813 70.5601 12.438C70.4501 12.6873 70.2667 12.933 70.0101 13.175C69.3794 13.769 68.5141 14.066 67.4141 14.066C66.5414 14.066 65.9474 13.7507 65.6321 13.12C65.5221 12.9 65.4671 12.5847 65.4671 12.174C65.4671 11.7633 65.5477 11.338 65.7091 10.898C65.8704 10.4507 66.0831 10.0657 66.3471 9.743C66.6184 9.42033 66.9301 9.171 67.2821 8.995C67.6341 8.81167 68.0081 8.72 68.4041 8.72C68.8074 8.72 69.1154 8.819 69.3281 9.017C69.5481 9.215 69.6581 9.47167 69.6581 9.787C69.6581 10.1023 69.5774 10.3627 69.4161 10.568C69.2621 10.766 69.0604 10.9347 68.8111 11.074C68.5617 11.206 68.2831 11.327 67.9751 11.437C67.6744 11.5397 67.3774 11.657 67.0841 11.789V12.064C67.0914 12.328 67.2014 12.515 67.4141 12.625C67.6267 12.735 67.8687 12.7937 68.1401 12.801ZM67.9531 9.699C67.5717 9.699 67.3077 10.1427 67.1611 11.03C67.3151 10.9273 67.4581 10.8357 67.5901 10.755C67.7294 10.6743 67.8504 10.5973 67.9531 10.524C68.1731 10.3627 68.2867 10.1793 68.2941 9.974C68.2941 9.79067 68.1804 9.699 67.9531 9.699ZM74.8827 10.139C74.1714 10.139 73.8231 9.95933 73.8377 9.6C73.8377 9.26267 74.1787 9.094 74.8607 9.094C75.0221 9.094 75.1761 9.11233 75.3227 9.149C75.5647 8.907 75.6857 8.54033 75.6857 8.049C75.6857 7.19833 75.1174 6.773 73.9807 6.773C73.3867 6.773 72.8221 6.90133 72.2867 7.158C72.0887 7.25333 71.9091 7.34133 71.7477 7.422C71.5937 7.50267 71.4507 7.543 71.3187 7.543C71.1867 7.543 71.1207 7.50267 71.1207 7.422C71.1207 7.32667 71.1941 7.18733 71.3407 7.004C71.4874 6.81333 71.6927 6.62267 71.9567 6.432C72.6314 5.96267 73.3977 5.72433 74.2557 5.717C75.3777 5.717 76.2027 5.94067 76.7307 6.388C77.1854 6.762 77.4127 7.27167 77.4127 7.917C77.4127 8.665 77.0461 9.237 76.3127 9.633C77.0167 10.0363 77.4347 10.5313 77.5667 11.118C77.6107 11.3233 77.6327 11.5947 77.6327 11.932C77.6327 12.2693 77.5411 12.5883 77.3577 12.889C77.1744 13.1897 76.9287 13.4427 76.6207 13.648C76.0047 14.044 75.2164 14.242 74.2557 14.242C73.5737 14.242 72.8147 14.088 71.9787 13.78C71.4214 13.5747 71.0107 13.329 70.7467 13.043C70.6147 12.9037 70.5487 12.7643 70.5487 12.625C70.5561 12.4857 70.6257 12.416 70.7577 12.416C70.8971 12.416 71.1574 12.4637 71.5387 12.559V12.548C71.5387 11.976 71.6047 11.3893 71.7367 10.788C71.9641 9.73933 72.2281 8.918 72.5287 8.324C72.8514 7.664 73.1851 7.334 73.5297 7.334C73.6251 7.334 73.6727 7.499 73.6727 7.829C73.6727 8.159 73.6397 8.49633 73.5737 8.841C73.5151 9.18567 73.4491 9.52667 73.3757 9.864C73.3097 10.194 73.2437 10.4947 73.1777 10.766C73.1191 11.0373 73.0897 11.2317 73.0897 11.349L72.9797 13.01C73.4124 13.1273 73.7791 13.186 74.0797 13.186C74.3804 13.186 74.6517 13.1347 74.8937 13.032C75.5024 12.7753 75.8067 12.328 75.8067 11.69C75.8067 11.3087 75.7701 10.9933 75.6967 10.744C75.6234 10.4947 75.4914 10.2747 75.3007 10.084C75.1321 10.1207 74.9927 10.139 74.8827 10.139ZM82.4838 9.358C82.4838 8.86667 82.8651 8.621 83.6278 8.621C83.8185 8.621 83.9358 8.68333 83.9798 8.808C84.0311 8.93267 84.0568 9.12333 84.0568 9.38C84.0568 9.73933 83.9761 10.2967 83.8148 11.052C83.6535 11.8073 83.5765 12.317 83.5838 12.581C83.5838 12.7057 83.6241 12.768 83.7048 12.768C83.8148 12.768 83.9505 12.6983 84.1118 12.559C84.2731 12.4197 84.4345 12.2693 84.5958 12.108C84.7571 11.9393 84.9038 11.7853 85.0358 11.646C85.1751 11.5067 85.2705 11.437 85.3218 11.437C85.4245 11.437 85.4758 11.5617 85.4758 11.811C85.4758 12.3243 85.2228 12.8193 84.7168 13.296C83.8661 13.7947 83.3271 14.044 83.0998 14.044C83.0778 14.044 83.0595 14.0403 83.0448 14.033C82.7661 14.033 82.5681 13.9413 82.4508 13.758C82.3408 13.5747 82.2711 13.3437 82.2418 13.065C82.0951 13.3363 81.8935 13.571 81.6368 13.769C81.3801 13.9597 81.0868 14.055 80.7568 14.055C80.1775 14.055 79.7301 13.945 79.4148 13.725C79.1068 13.505 78.9528 13.1787 78.9528 12.746C78.9528 12.5553 78.9785 12.3793 79.0298 12.218C79.0885 12.0567 79.1801 11.8587 79.3048 11.624L79.6238 8.918C79.8511 8.742 80.1775 8.654 80.6028 8.654C80.9401 8.654 81.1308 8.874 81.1748 9.314C81.2115 9.67333 81.1931 9.996 81.1198 10.282C81.0538 10.5607 80.9621 10.9163 80.8448 11.349C80.7275 11.7743 80.6688 12.152 80.6688 12.482C80.6688 12.746 80.8338 12.878 81.1638 12.878C81.5231 12.878 81.8348 12.5627 82.0988 11.932C82.3041 11.448 82.4435 10.909 82.5168 10.315C82.5095 10.2563 82.5021 10.183 82.4948 10.095C82.4948 9.99967 82.4911 9.908 82.4838 9.82C82.4838 9.732 82.4838 9.644 82.4838 9.556V9.358ZM86.798 14.033C86.0647 14.033 85.698 13.3473 85.698 11.976C85.698 11.228 85.7897 10.5497 85.973 9.941C86.259 9.00233 86.5817 8.533 86.941 8.533C87.1537 8.533 87.3224 8.676 87.447 8.962C87.5497 9.182 87.5974 9.39833 87.59 9.611C87.59 9.90433 87.502 10.4213 87.326 11.162C87.1574 11.8073 87.073 12.207 87.073 12.361C87.073 12.515 87.1097 12.6213 87.183 12.68C87.2637 12.7387 87.3554 12.768 87.458 12.768C87.568 12.768 87.7037 12.6983 87.865 12.559C88.0264 12.4197 88.1877 12.2693 88.349 12.108C88.5104 11.9393 88.657 11.7853 88.789 11.646C88.9284 11.5067 89.0237 11.437 89.075 11.437C89.1777 11.437 89.229 11.5617 89.229 11.811C89.229 12.3243 88.9687 12.8267 88.448 13.318C87.9347 13.802 87.3847 14.0403 86.798 14.033ZM87.249 7.642C87.051 7.34867 86.952 7.03333 86.952 6.696C86.952 6.35867 87.0034 6.08 87.106 5.86C87.216 5.63267 87.3187 5.46767 87.414 5.365C87.5094 5.255 87.6194 5.2 87.744 5.2C87.9494 5.2 88.1364 5.354 88.305 5.662C88.4737 5.96267 88.558 6.21567 88.558 6.421C88.558 6.80233 88.4224 7.103 88.151 7.323C87.887 7.53567 87.5864 7.642 87.249 7.642ZM91.6822 14.033C90.6336 14.0403 89.9186 13.648 89.5372 12.856C89.4052 12.5773 89.3392 12.229 89.3392 11.811C89.3392 11.3857 89.3759 10.9347 89.4492 10.458C89.5959 9.50467 89.8782 8.62467 90.2962 7.818C90.5089 7.40733 90.7472 7.05533 91.0112 6.762C91.5906 6.11667 92.2359 5.79767 92.9472 5.805C93.2626 5.805 93.5082 5.893 93.6842 6.069C93.8676 6.23767 93.9592 6.48333 93.9592 6.806C93.9592 7.12867 93.8639 7.455 93.6732 7.785C93.4826 8.10767 93.2369 8.445 92.9362 8.797C92.6429 9.14167 92.3166 9.50467 91.9572 9.886C91.5979 10.2673 91.2459 10.6817 90.9012 11.129V11.569C90.9012 11.9797 90.9892 12.2803 91.1652 12.471C91.3412 12.6617 91.5466 12.757 91.7812 12.757C92.4119 12.757 92.9692 12.4453 93.4532 11.822C93.6512 11.5653 93.8016 11.437 93.9042 11.437C94.0069 11.437 94.0582 11.5617 94.0582 11.811C94.0582 12.0603 93.9886 12.317 93.8492 12.581C93.7172 12.8377 93.5412 13.076 93.3212 13.296C93.1012 13.5087 92.8482 13.6847 92.5622 13.824C92.2762 13.9633 91.9829 14.033 91.6822 14.033ZM92.2762 8.126C92.4302 7.93533 92.5512 7.763 92.6392 7.609C92.7272 7.455 92.7712 7.29733 92.7712 7.136C92.7712 6.96733 92.7126 6.883 92.5952 6.883C92.3386 6.883 92.0526 7.147 91.7372 7.675C91.4292 8.203 91.1982 8.896 91.0442 9.754C91.2936 9.37267 91.5209 9.05367 91.7262 8.797C91.9389 8.54033 92.1222 8.31667 92.2762 8.126ZM100.712 11.404C100.844 11.404 100.91 11.5727 100.91 11.91C100.91 12.0933 100.833 12.317 100.679 12.581C100.525 12.8377 100.323 13.076 100.074 13.296C99.8319 13.5087 99.5606 13.6847 99.2599 13.824C98.9593 13.9633 98.6659 14.033 98.3799 14.033C97.9766 14.033 97.7126 13.703 97.5879 13.043C97.1479 13.7397 96.4953 14.088 95.6299 14.088C95.1019 14.088 94.6803 13.9267 94.3649 13.604C94.0496 13.2813 93.8956 12.889 93.9029 12.427C93.9029 11.1803 94.3173 10.1977 95.1459 9.479C95.7179 8.98767 96.3119 8.742 96.9279 8.742C97.2066 8.742 97.4266 8.764 97.5879 8.808L97.8409 8.874C98.1416 7.45867 98.4899 6.51267 98.8859 6.036C99.0179 5.87467 99.1499 5.794 99.2819 5.794C99.4946 5.794 99.6926 5.94067 99.8759 6.234C100.037 6.476 100.118 6.685 100.118 6.861C100.118 7.037 100.092 7.20933 100.041 7.378C99.9896 7.54667 99.9236 7.70433 99.8429 7.851C99.7696 7.99033 99.6853 8.12967 99.5899 8.269C99.4946 8.401 99.3993 8.53667 99.3039 8.676C99.0913 9.468 98.9336 10.3553 98.8309 11.338C98.8016 11.6167 98.7869 11.8403 98.7869 12.009C98.7869 12.515 98.8713 12.768 99.0399 12.768C99.2306 12.768 99.6926 12.3867 100.426 11.624C100.558 11.4773 100.653 11.404 100.712 11.404ZM95.5199 12.064C95.5199 12.6287 95.7289 12.911 96.1469 12.911C96.3963 12.911 96.6456 12.8157 96.8949 12.625C97.1516 12.4343 97.3496 12.1153 97.4889 11.668C97.5036 11.008 97.5806 10.282 97.7199 9.49C97.1333 9.60733 96.6199 9.89333 96.1799 10.348C95.7399 10.8027 95.5199 11.3747 95.5199 12.064ZM103.473 12.801C104.045 12.801 104.599 12.5737 105.134 12.119C105.332 11.9503 105.494 11.7963 105.618 11.657C105.743 11.5103 105.838 11.437 105.904 11.437C106.007 11.437 106.058 11.5397 106.058 11.745C106.058 11.9503 106.003 12.1813 105.893 12.438C105.783 12.6873 105.6 12.933 105.343 13.175C104.713 13.769 103.847 14.066 102.747 14.066C101.875 14.066 101.281 13.7507 100.965 13.12C100.855 12.9 100.8 12.5847 100.8 12.174C100.8 11.7633 100.881 11.338 101.042 10.898C101.204 10.4507 101.416 10.0657 101.68 9.743C101.952 9.42033 102.263 9.171 102.615 8.995C102.967 8.81167 103.341 8.72 103.737 8.72C104.141 8.72 104.449 8.819 104.661 9.017C104.881 9.215 104.991 9.47167 104.991 9.787C104.991 10.1023 104.911 10.3627 104.749 10.568C104.595 10.766 104.394 10.9347 104.144 11.074C103.895 11.206 103.616 11.327 103.308 11.437C103.008 11.5397 102.711 11.657 102.417 11.789V12.064C102.425 12.328 102.535 12.515 102.747 12.625C102.96 12.735 103.202 12.7937 103.473 12.801ZM103.286 9.699C102.905 9.699 102.641 10.1427 102.494 11.03C102.648 10.9273 102.791 10.8357 102.923 10.755C103.063 10.6743 103.184 10.5973 103.286 10.524C103.506 10.3627 103.62 10.1793 103.627 9.974C103.627 9.79067 103.514 9.699 103.286 9.699ZM107.664 12.152L107.73 13.494C107.73 13.67 107.638 13.8277 107.455 13.967C107.272 14.1063 107.022 14.176 106.707 14.176C106.524 14.176 106.395 14.0807 106.322 13.89C106.256 13.6993 106.223 13.4207 106.223 13.054C106.223 12.284 106.26 11.6827 106.333 11.25C106.414 10.81 106.568 10.3663 106.795 9.919C106.458 9.59633 106.289 9.31767 106.289 9.083C106.289 8.59167 106.553 8.346 107.081 8.346C107.352 8.346 107.591 8.489 107.796 8.775C107.943 8.973 108.049 9.204 108.115 9.468C108.218 9.50467 108.346 9.523 108.5 9.523C108.713 9.523 108.958 9.45333 109.237 9.314L109.523 9.171C109.611 9.127 109.688 9.105 109.754 9.105C109.967 9.105 110.179 9.41667 110.392 10.04C110.326 10.326 110.253 10.601 110.172 10.865C110.099 11.129 110.011 11.448 109.908 11.822C109.805 12.196 109.75 12.449 109.743 12.581C109.743 12.7057 109.783 12.768 109.864 12.768C109.974 12.768 110.11 12.6983 110.271 12.559C110.432 12.4197 110.594 12.2693 110.755 12.108C110.916 11.9393 111.063 11.7853 111.195 11.646C111.334 11.5067 111.43 11.437 111.481 11.437C111.584 11.437 111.635 11.5617 111.635 11.811C111.635 12.317 111.411 12.8157 110.964 13.307C110.524 13.7983 110.018 14.0403 109.446 14.033C109.109 14.033 108.856 13.8973 108.687 13.626C108.518 13.3547 108.43 13.0247 108.423 12.636C108.423 11.866 108.595 11.1363 108.94 10.447C108.779 10.513 108.595 10.546 108.39 10.546C108.192 10.546 108.049 10.5387 107.961 10.524C107.895 10.8027 107.829 11.085 107.763 11.371C107.697 11.6497 107.664 11.91 107.664 12.152Z" fill="white"/>
</g>
<defs>
<clipPath id="clip0_24_86">
<rect width="111" height="21" fill="white"/>
</clipPath>
<clipPath id="clip1_24_86">
<rect x="2" y="3" width="26" height="14" rx="7" fill="white"/>
</clipPath>
</defs>
</svg>
