<svg width="25" height="24" viewBox="0 0 25 24" fill="none" xmlns="http://www.w3.org/2000/svg">
<path d="M9.5 3.5V20.5M3.5 9.4C3.5 7.16 3.5 6.04 3.936 5.184C4.31949 4.43139 4.93139 3.81949 5.684 3.436C6.54 3 7.66 3 9.9 3H15.1C17.34 3 18.46 3 19.316 3.436C20.0686 3.81949 20.6805 4.43139 21.064 5.184C21.5 6.04 21.5 7.16 21.5 9.4V14.6C21.5 16.84 21.5 17.96 21.064 18.816C20.6805 19.5686 20.0686 20.1805 19.316 20.564C18.46 21 17.34 21 15.1 21H9.9C7.66 21 6.54 21 5.684 20.564C4.93139 20.1805 4.31949 19.5686 3.936 18.816C3.5 17.96 3.5 16.84 3.5 14.6V9.4Z" stroke="white" stroke-width="1.5" stroke-linecap="round" stroke-linejoin="round"/>
</svg>
