<svg width="75" height="45" viewBox="0 0 75 45" fill="none" xmlns="http://www.w3.org/2000/svg">
<rect y="0.5" width="75" height="44" rx="7" fill="#3A66E9"/>
<path d="M22 25.5C23.6569 25.5 25 24.1569 25 22.5C25 20.8431 23.6569 19.5 22 19.5C20.3431 19.5 19 20.8431 19 22.5C19 24.1569 20.3431 25.5 22 25.5Z" stroke="white" stroke-width="2"/>
<path d="M30.188 21.434C30.576 21.906 30.77 22.141 30.77 22.5C30.77 22.859 30.576 23.094 30.188 23.566C28.768 25.29 25.636 28.5 22 28.5C18.364 28.5 15.232 25.29 13.812 23.566C13.424 23.094 13.23 22.859 13.23 22.5C13.23 22.141 13.424 21.906 13.812 21.434C15.232 19.71 18.364 16.5 22 16.5C25.636 16.5 28.768 19.71 30.188 21.434Z" stroke="white" stroke-width="2"/>
<path d="M38.0284 18.2727L40.2997 25.142H40.3892L42.6562 18.2727H44.3949L41.3182 27H39.3665L36.294 18.2727H38.0284ZM45.4762 27V20.4545H47.0188V27H45.4762ZM46.2518 19.5256C46.0075 19.5256 45.7972 19.4446 45.6211 19.2827C45.445 19.1179 45.3569 18.9205 45.3569 18.6903C45.3569 18.4574 45.445 18.2599 45.6211 18.098C45.7972 17.9332 46.0075 17.8509 46.2518 17.8509C46.4989 17.8509 46.7092 17.9332 46.8825 18.098C47.0586 18.2599 47.1467 18.4574 47.1467 18.6903C47.1467 18.9205 47.0586 19.1179 46.8825 19.2827C46.7092 19.4446 46.4989 19.5256 46.2518 19.5256ZM51.5028 27.1278C50.8466 27.1278 50.2798 26.9915 49.8026 26.7188C49.3281 26.4432 48.9631 26.054 48.7074 25.5511C48.4517 25.0455 48.3239 24.4503 48.3239 23.7656C48.3239 23.0923 48.4517 22.5014 48.7074 21.9929C48.9659 21.4815 49.3267 21.0838 49.7898 20.7997C50.2528 20.5128 50.7969 20.3693 51.4219 20.3693C51.8253 20.3693 52.206 20.4347 52.5639 20.5653C52.9247 20.6932 53.2429 20.892 53.5185 21.1619C53.7969 21.4318 54.0156 21.7756 54.1747 22.1932C54.3338 22.608 54.4134 23.1023 54.4134 23.6761V24.1491H49.0483V23.1094H52.9347C52.9318 22.8139 52.8679 22.5511 52.7429 22.321C52.6179 22.0881 52.4432 21.9048 52.2188 21.7713C51.9972 21.6378 51.7386 21.571 51.4432 21.571C51.1278 21.571 50.8509 21.6477 50.6122 21.8011C50.3736 21.9517 50.1875 22.1506 50.054 22.3977C49.9233 22.642 49.8565 22.9105 49.8537 23.2031V24.1108C49.8537 24.4915 49.9233 24.8182 50.0625 25.0909C50.2017 25.3608 50.3963 25.5682 50.6463 25.7131C50.8963 25.8551 51.1889 25.9261 51.5241 25.9261C51.7486 25.9261 51.9517 25.8949 52.1335 25.8324C52.3153 25.767 52.473 25.6719 52.6065 25.5469C52.7401 25.4219 52.8409 25.267 52.9091 25.0824L54.3494 25.2443C54.2585 25.625 54.0852 25.9574 53.8295 26.2415C53.5767 26.5227 53.2528 26.7415 52.858 26.8977C52.4631 27.0511 52.0114 27.1278 51.5028 27.1278ZM57.0341 27L55.1847 20.4545H56.7571L57.9077 25.0568H57.9673L59.1435 20.4545H60.6989L61.875 25.0312H61.9389L63.0724 20.4545H64.6491L62.7955 27H61.1889L59.9616 22.5767H59.8722L58.6449 27H57.0341Z" fill="white"/>
</svg>
